<?xml version="1.0" encoding="UTF-8" standalone="no"?>
<!DOCTYPE svg PUBLIC "-//W3C//DTD SVG 1.1//EN"
 "http://www.w3.org/Graphics/SVG/1.1/DTD/svg11.dtd">
<!-- Generated by graphviz version 2.30.1 (20130609.1303)
 -->
<!-- Title: G Pages: 1 -->
<svg width="418pt" height="190pt"
 viewBox="0.00 0.00 418.00 190.00" xmlns="http://www.w3.org/2000/svg" xmlns:xlink="http://www.w3.org/1999/xlink">
<g id="graph0" class="graph" transform="scale(1 1) rotate(0) translate(4 186)">
<title>G</title>
<polygon fill="white" stroke="white" points="-4,5 -4,-186 415,-186 415,5 -4,5"/>
<!-- idle -->
<g id="node1" class="node"><title>idle</title>
<ellipse fill="none" stroke="black" cx="78" cy="-90" rx="36" ry="36"/>
<text text-anchor="middle" x="78" y="-84.0493" font-family="Arial" font-size="14.00">idle</text>
</g>
<!-- active -->
<g id="node3" class="node"><title>active</title>
<ellipse fill="none" stroke="black" cx="214" cy="-90" rx="36" ry="36"/>
<text text-anchor="middle" x="214" y="-84.0493" font-family="Arial" font-size="14.00">active</text>
</g>
<!-- idle&#45;&gt;active -->
<g id="edge2" class="edge"><title>idle&#45;&gt;active</title>
<path fill="none" stroke="black" d="M114.207,-90C130.389,-90 149.793,-90 167.103,-90"/>
<polygon fill="black" stroke="black" points="167.563,-93.5001 177.563,-90 167.563,-86.5001 167.563,-93.5001"/>
<text text-anchor="middle" x="146" y="-92.0986" font-family="Arial" font-size="14.00">start</text>
</g>
<!-- starting_state -->
<g id="node2" class="node"><title>starting_state</title>
<ellipse fill="black" stroke="black" cx="2" cy="-90" rx="1.8" ry="1.8"/>
</g>
<!-- starting_state&#45;&gt;idle -->
<g id="edge1" class="edge"><title>starting_state&#45;&gt;idle</title>
<path fill="none" stroke="black" d="M3.83105,-90C6.96908,-90 18.5857,-90 31.6682,-90"/>
<polygon fill="black" stroke="black" points="31.8421,-93.5001 41.8421,-90 31.8421,-86.5001 31.8421,-93.5001"/>
</g>
<!-- active&#45;&gt;active -->
<g id="edge3" class="edge"><title>active&#45;&gt;active</title>
<path fill="none" stroke="black" d="M201.25,-123.75C201.25,-135 205.5,-144 214,-144 219.711,-144 223.503,-139.937 225.377,-133.859"/>
<polygon fill="black" stroke="black" points="228.872,-134.13 226.75,-123.75 221.936,-133.188 228.872,-134.13"/>
<text text-anchor="middle" x="214" y="-146.099" font-family="Arial" font-size="14.00">interrupt</text>
</g>
<!-- canceled -->
<g id="node4" class="node"><title>canceled</title>
<ellipse fill="none" stroke="black" cx="368" cy="-140" rx="38.4302" ry="38.4302"/>
<ellipse fill="none" stroke="black" cx="368" cy="-140" rx="42.4516" ry="42.4516"/>
<text text-anchor="middle" x="368" y="-134.049" font-family="Arial" font-size="14.00">canceled</text>
</g>
<!-- active&#45;&gt;canceled -->
<g id="edge4" class="edge"><title>active&#45;&gt;canceled</title>
<path fill="none" stroke="black" d="M248.357,-100.973C268.774,-107.689 295.26,-116.401 318.027,-123.89"/>
<polygon fill="black" stroke="black" points="316.935,-127.216 327.528,-127.016 319.122,-120.566 316.935,-127.216"/>
<text text-anchor="middle" x="288" y="-121.099" font-family="Arial" font-size="14.00">cancel</text>
</g>
<!-- finished -->
<g id="node5" class="node"><title>finished</title>
<ellipse fill="none" stroke="black" cx="368" cy="-40" rx="36" ry="36"/>
<ellipse fill="none" stroke="black" cx="368" cy="-40" rx="40" ry="40"/>
<text text-anchor="middle" x="368" y="-34.0493" font-family="Arial" font-size="14.00">finished</text>
</g>
<!-- active&#45;&gt;finished -->
<g id="edge5" class="edge"><title>active&#45;&gt;finished</title>
<path fill="none" stroke="black" d="M248.357,-79.0273C269.385,-72.1101 296.853,-63.0746 320.063,-55.4397"/>
<polygon fill="black" stroke="black" points="321.313,-58.7132 329.719,-52.2636 319.126,-52.0637 321.313,-58.7132"/>
<text text-anchor="middle" x="288" y="-75.0986" font-family="Arial" font-size="14.00">finish</text>
</g>
</g>
</svg>
