<?xml version="1.0" encoding="UTF-8" standalone="no"?>
<!DOCTYPE svg PUBLIC "-//W3C//DTD SVG 1.1//EN"
 "http://www.w3.org/Graphics/SVG/1.1/DTD/svg11.dtd">
<!-- Generated by graphviz version 2.30.1 (20130609.1303)
 -->
<!-- Title: G Pages: 1 -->
<svg width="416pt" height="170pt"
 viewBox="0.00 0.00 416.00 170.00" xmlns="http://www.w3.org/2000/svg" xmlns:xlink="http://www.w3.org/1999/xlink">
<g id="graph0" class="graph" transform="scale(1 1) rotate(0) translate(4 166)">
<title>G</title>
<polygon fill="white" stroke="white" points="-4,5 -4,-166 413,-166 413,5 -4,5"/>
<!-- idle -->
<g id="node1" class="node"><title>idle</title>
<ellipse fill="none" stroke="black" cx="78" cy="-68" rx="36" ry="36"/>
<text text-anchor="middle" x="78" y="-62.0493" font-family="Arial" font-size="14.00">idle</text>
</g>
<!-- active -->
<g id="node3" class="node"><title>active</title>
<ellipse fill="none" stroke="black" cx="222" cy="-126" rx="36" ry="36"/>
<text text-anchor="middle" x="222" y="-120.049" font-family="Arial" font-size="14.00">active</text>
</g>
<!-- idle&#45;&gt;active -->
<g id="edge2" class="edge"><title>idle&#45;&gt;active</title>
<path fill="none" stroke="black" d="M111.578,-81.3064C131.459,-89.4271 157.093,-99.8973 178.552,-108.662"/>
<polygon fill="black" stroke="black" points="177.501,-112.014 188.082,-112.555 180.148,-105.533 177.501,-112.014"/>
<text text-anchor="middle" x="150" y="-105.099" font-family="Arial" font-size="14.00">start</text>
</g>
<!-- break -->
<g id="node4" class="node"><title>break</title>
<ellipse fill="none" stroke="black" cx="222" cy="-36" rx="36" ry="36"/>
<text text-anchor="middle" x="222" y="-30.0493" font-family="Arial" font-size="14.00">break</text>
</g>
<!-- idle&#45;&gt;break -->
<g id="edge3" class="edge"><title>idle&#45;&gt;break</title>
<path fill="none" stroke="black" d="M113.374,-60.2537C132.333,-55.9813 156.09,-50.6277 176.457,-46.0379"/>
<polygon fill="black" stroke="black" points="177.464,-49.3987 186.45,-43.7859 175.925,-42.57 177.464,-49.3987"/>
<text text-anchor="middle" x="150" y="-58.0986" font-family="Arial" font-size="14.00">break</text>
</g>
<!-- starting_state -->
<g id="node2" class="node"><title>starting_state</title>
<ellipse fill="black" stroke="black" cx="2" cy="-68" rx="1.8" ry="1.8"/>
</g>
<!-- starting_state&#45;&gt;idle -->
<g id="edge1" class="edge"><title>starting_state&#45;&gt;idle</title>
<path fill="none" stroke="black" d="M3.83105,-68C6.96908,-68 18.5857,-68 31.6682,-68"/>
<polygon fill="black" stroke="black" points="31.8421,-71.5001 41.8421,-68 31.8421,-64.5001 31.8421,-71.5001"/>
</g>
<!-- finished -->
<g id="node5" class="node"><title>finished</title>
<ellipse fill="none" stroke="black" cx="368" cy="-87" rx="36" ry="36"/>
<ellipse fill="none" stroke="black" cx="368" cy="-87" rx="40" ry="40"/>
<text text-anchor="middle" x="368" y="-81.0493" font-family="Arial" font-size="14.00">finished</text>
</g>
<!-- active&#45;&gt;finished -->
<g id="edge4" class="edge"><title>active&#45;&gt;finished</title>
<path fill="none" stroke="black" d="M257.126,-116.758C275.781,-111.705 299.177,-105.369 319.581,-99.8427"/>
<polygon fill="black" stroke="black" points="320.586,-103.197 329.323,-97.2042 318.756,-96.4401 320.586,-103.197"/>
<text text-anchor="middle" x="293" y="-113.099" font-family="Arial" font-size="14.00">finish</text>
</g>
<!-- break&#45;&gt;finished -->
<g id="edge5" class="edge"><title>break&#45;&gt;finished</title>
<path fill="none" stroke="black" d="M256.398,-47.8286C275.406,-54.5603 299.508,-63.0967 320.358,-70.4811"/>
<polygon fill="black" stroke="black" points="319.392,-73.8517 329.987,-73.8911 321.729,-67.2533 319.392,-73.8517"/>
<text text-anchor="middle" x="293" y="-69.0986" font-family="Arial" font-size="14.00">finish</text>
</g>
</g>
</svg>
