<?xml version="1.0" encoding="UTF-8" standalone="no"?>
<!DOCTYPE svg PUBLIC "-//W3C//DTD SVG 1.1//EN"
 "http://www.w3.org/Graphics/SVG/1.1/DTD/svg11.dtd">
<!-- Generated by graphviz version 2.30.1 (20130609.1303)
 -->
<!-- Title: G Pages: 1 -->
<svg width="408pt" height="88pt"
 viewBox="0.00 0.00 408.00 88.00" xmlns="http://www.w3.org/2000/svg" xmlns:xlink="http://www.w3.org/1999/xlink">
<g id="graph0" class="graph" transform="scale(1 1) rotate(0) translate(4 84)">
<title>G</title>
<polygon fill="white" stroke="white" points="-4,5 -4,-84 405,-84 405,5 -4,5"/>
<!-- idle -->
<g id="node1" class="node"><title>idle</title>
<ellipse fill="none" stroke="black" cx="78" cy="-40" rx="36" ry="36"/>
<text text-anchor="middle" x="78" y="-34.0493" font-family="Arial" font-size="14.00">idle</text>
</g>
<!-- active -->
<g id="node3" class="node"><title>active</title>
<ellipse fill="none" stroke="black" cx="214" cy="-40" rx="36" ry="36"/>
<text text-anchor="middle" x="214" y="-34.0493" font-family="Arial" font-size="14.00">active</text>
</g>
<!-- idle&#45;&gt;active -->
<g id="edge2" class="edge"><title>idle&#45;&gt;active</title>
<path fill="none" stroke="black" d="M114.207,-40C130.389,-40 149.793,-40 167.103,-40"/>
<polygon fill="black" stroke="black" points="167.563,-43.5001 177.563,-40 167.563,-36.5001 167.563,-43.5001"/>
<text text-anchor="middle" x="146" y="-42.0986" font-family="Arial" font-size="14.00">start</text>
</g>
<!-- starting_state -->
<g id="node2" class="node"><title>starting_state</title>
<ellipse fill="black" stroke="black" cx="2" cy="-40" rx="1.8" ry="1.8"/>
</g>
<!-- starting_state&#45;&gt;idle -->
<g id="edge1" class="edge"><title>starting_state&#45;&gt;idle</title>
<path fill="none" stroke="black" d="M3.83105,-40C6.96908,-40 18.5857,-40 31.6682,-40"/>
<polygon fill="black" stroke="black" points="31.8421,-43.5001 41.8421,-40 31.8421,-36.5001 31.8421,-43.5001"/>
</g>
<!-- finished -->
<g id="node4" class="node"><title>finished</title>
<ellipse fill="none" stroke="black" cx="360" cy="-40" rx="36" ry="36"/>
<ellipse fill="none" stroke="black" cx="360" cy="-40" rx="40" ry="40"/>
<text text-anchor="middle" x="360" y="-34.0493" font-family="Arial" font-size="14.00">finished</text>
</g>
<!-- active&#45;&gt;finished -->
<g id="edge3" class="edge"><title>active&#45;&gt;finished</title>
<path fill="none" stroke="black" d="M250.226,-40C268.083,-40 290.064,-40 309.582,-40"/>
<polygon fill="black" stroke="black" points="309.829,-43.5001 319.829,-40 309.829,-36.5001 309.829,-43.5001"/>
<text text-anchor="middle" x="285" y="-42.0986" font-family="Arial" font-size="14.00">finish</text>
</g>
</g>
</svg>
