<?xml version="1.0" encoding="UTF-8" standalone="no"?>
<!DOCTYPE svg PUBLIC "-//W3C//DTD SVG 1.1//EN"
 "http://www.w3.org/Graphics/SVG/1.1/DTD/svg11.dtd">
<!-- Generated by graphviz version 2.30.1 (20130609.1303)
 -->
<!-- Title: G Pages: 1 -->
<svg width="416pt" height="201pt"
 viewBox="0.00 0.00 416.00 201.22" xmlns="http://www.w3.org/2000/svg" xmlns:xlink="http://www.w3.org/1999/xlink">
<g id="graph0" class="graph" transform="scale(1 1) rotate(0) translate(4 197.224)">
<title>G</title>
<polygon fill="white" stroke="white" points="-4,5 -4,-197.224 413,-197.224 413,5 -4,5"/>
<!-- idle -->
<g id="node1" class="node"><title>idle</title>
<ellipse fill="none" stroke="black" cx="78" cy="-67.2243" rx="36" ry="36"/>
<text text-anchor="middle" x="78" y="-61.2737" font-family="Arial" font-size="14.00">idle</text>
</g>
<!-- active -->
<g id="node3" class="node"><title>active</title>
<ellipse fill="none" stroke="black" cx="222" cy="-157.224" rx="36" ry="36"/>
<text text-anchor="middle" x="222" y="-151.274" font-family="Arial" font-size="14.00">active</text>
</g>
<!-- idle&#45;&gt;active -->
<g id="edge2" class="edge"><title>idle&#45;&gt;active</title>
<path fill="none" stroke="black" d="M108.768,-86.0913C130.258,-99.7116 159.46,-118.22 182.689,-132.943"/>
<polygon fill="black" stroke="black" points="180.951,-135.985 191.271,-138.382 184.699,-130.073 180.951,-135.985"/>
<text text-anchor="middle" x="150" y="-124.323" font-family="Arial" font-size="14.00">start</text>
</g>
<!-- break -->
<g id="node4" class="node"><title>break</title>
<ellipse fill="none" stroke="black" cx="222" cy="-67.2243" rx="36" ry="36"/>
<text text-anchor="middle" x="222" y="-61.2737" font-family="Arial" font-size="14.00">break</text>
</g>
<!-- idle&#45;&gt;break -->
<g id="edge3" class="edge"><title>idle&#45;&gt;break</title>
<path fill="none" stroke="black" d="M114.101,-67.2243C132.705,-67.2243 155.771,-67.2243 175.709,-67.2243"/>
<polygon fill="black" stroke="black" points="175.811,-70.7244 185.811,-67.2243 175.81,-63.7244 175.811,-70.7244"/>
<text text-anchor="middle" x="150" y="-69.323" font-family="Arial" font-size="14.00">break</text>
</g>
<!-- finished -->
<g id="node5" class="node"><title>finished</title>
<ellipse fill="none" stroke="black" cx="368" cy="-67.2243" rx="36" ry="36"/>
<ellipse fill="none" stroke="black" cx="368" cy="-67.2243" rx="40" ry="40"/>
<text text-anchor="middle" x="368" y="-61.2737" font-family="Arial" font-size="14.00">finished</text>
</g>
<!-- idle&#45;&gt;finished -->
<g id="edge4" class="edge"><title>idle&#45;&gt;finished</title>
<path fill="none" stroke="black" d="M107.169,-45.6904C127.767,-31.3606 157.054,-13.8079 186,-6.12572 216.929,2.08284 227.038,1.96004 258,-6.12572 282.501,-12.5242 307.32,-25.7903 327.073,-38.331"/>
<polygon fill="black" stroke="black" points="325.206,-41.2913 335.493,-43.8261 329.032,-35.4294 325.206,-41.2913"/>
<text text-anchor="middle" x="222" y="-8.32298" font-family="Arial" font-size="14.00">log</text>
</g>
<!-- starting_state -->
<g id="node2" class="node"><title>starting_state</title>
<ellipse fill="black" stroke="black" cx="2" cy="-67.2243" rx="1.8" ry="1.8"/>
</g>
<!-- starting_state&#45;&gt;idle -->
<g id="edge1" class="edge"><title>starting_state&#45;&gt;idle</title>
<path fill="none" stroke="black" d="M3.83105,-67.2243C6.96908,-67.2243 18.5857,-67.2243 31.6682,-67.2243"/>
<polygon fill="black" stroke="black" points="31.8421,-70.7244 41.8421,-67.2243 31.8421,-63.7244 31.8421,-70.7244"/>
</g>
<!-- active&#45;&gt;finished -->
<g id="edge5" class="edge"><title>active&#45;&gt;finished</title>
<path fill="none" stroke="black" d="M252.837,-138.576C273.729,-125.519 301.933,-107.891 325.08,-93.4243"/>
<polygon fill="black" stroke="black" points="327.053,-96.3186 333.678,-88.0506 323.343,-90.3826 327.053,-96.3186"/>
<text text-anchor="middle" x="293" y="-124.323" font-family="Arial" font-size="14.00">finish</text>
</g>
<!-- break&#45;&gt;finished -->
<g id="edge6" class="edge"><title>break&#45;&gt;finished</title>
<path fill="none" stroke="black" d="M258.226,-67.2243C276.083,-67.2243 298.064,-67.2243 317.582,-67.2243"/>
<polygon fill="black" stroke="black" points="317.829,-70.7244 327.829,-67.2243 317.829,-63.7244 317.829,-70.7244"/>
<text text-anchor="middle" x="293" y="-69.323" font-family="Arial" font-size="14.00">finish</text>
</g>
</g>
</svg>
